<?xml version="1.0" standalone="no"?>
<!DOCTYPE svg PUBLIC "-//W3C//DTD SVG 20010904//EN"
 "http://www.w3.org/TR/2001/REC-SVG-20010904/DTD/svg10.dtd">
<svg version="1.0" xmlns="http://www.w3.org/2000/svg"
 width="2000.000000pt" height="2000.000000pt" viewBox="0 0 2000.000000 2000.000000"
 preserveAspectRatio="xMidYMid meet">
<metadata>
Created by potrace 1.15, written by Peter Selinger 2001-2017
</metadata>
<g transform="translate(0.000000,2000.000000) scale(0.100000,-0.100000)"
fill="#000000" stroke="none">
<path d="M7787 18274 c-394 -85 -612 -395 -689 -979 -19 -147 -19 -14286 0
-14450 71 -602 307 -945 742 -1079 192 -59 115 -57 2235 -53 1787 2 1946 4
2010 20 206 50 317 99 445 196 47 35 87 69 89 74 2 6 19 26 37 44 19 18 34 37
35 41 0 4 13 22 27 41 15 18 26 37 25 42 -2 5 2 9 9 9 6 0 9 3 5 6 -3 3 5 24
19 45 13 21 24 41 24 43 0 3 5 17 12 33 6 15 12 30 13 33 1 3 4 12 8 20 3 8 9
29 13 45 4 17 9 35 10 40 11 32 29 135 41 230 9 65 11 13472 3 13567 -3 32 -8
58 -12 58 -4 0 -5 18 -3 40 2 23 -1 40 -7 40 -5 0 -8 6 -5 14 3 8 1 17 -6 20
-8 3 -8 5 2 5 11 1 11 4 1 16 -7 9 -14 30 -15 48 -3 46 -8 60 -25 74 -9 8 -10
12 -3 13 8 0 8 6 0 24 -7 13 -15 22 -18 20 -4 -2 -5 4 -2 15 3 10 -1 22 -8 26
-8 6 -10 4 -4 -5 5 -9 4 -11 -4 -6 -6 4 -9 11 -6 16 3 5 -2 16 -11 24 -8 9
-11 16 -5 16 6 0 8 7 4 16 -5 12 -7 13 -14 3 -5 -9 -10 1 -15 29 -4 27 -14 47
-26 53 -11 6 -17 17 -14 25 3 8 0 14 -6 14 -16 0 -49 42 -44 56 3 8 -1 11 -9
8 -9 -4 -19 4 -26 20 -7 14 -19 26 -26 26 -8 0 -12 3 -9 8 2 4 -2 16 -10 27
-8 10 -14 13 -14 6 0 -9 -4 -8 -15 3 -8 8 -15 21 -15 29 0 8 -13 20 -30 27
-16 7 -28 15 -26 19 3 4 -9 14 -25 24 -17 9 -27 12 -24 7 3 -6 -1 -7 -9 -4 -9
3 -16 12 -16 20 0 8 -5 14 -12 14 -6 0 -20 8 -31 18 -11 9 -17 11 -13 4 7 -11
4 -12 -13 -3 -11 7 -21 17 -21 23 0 5 -9 8 -20 5 -13 -3 -28 3 -42 16 -11 12
-17 16 -13 8 6 -11 2 -10 -16 2 -13 9 -34 17 -47 17 -15 0 -21 4 -16 12 5 8 0
9 -14 6 -13 -4 -20 -2 -16 3 3 6 -6 8 -20 5 -14 -3 -26 -1 -26 4 0 4 -7 11
-16 14 -10 4 -13 2 -8 -7 6 -9 5 -9 -8 0 -8 7 -18 10 -21 6 -4 -3 -7 -1 -7 5
0 6 -7 9 -15 6 -8 -4 -22 -1 -30 6 -8 7 -15 9 -15 5 0 -4 -7 -2 -15 5 -9 7
-18 10 -22 7 -3 -3 -18 0 -34 9 -16 8 -31 14 -34 14 -3 0 -6 0 -7 1 -2 1 -20
3 -41 5 -21 1 -44 8 -51 13 -7 6 -16 8 -20 4 -4 -4 -10 -2 -14 4 -6 9 -29 16
-127 38 -42 9 -111 27 -125 33 -8 3 -19 4 -24 3 -4 -1 -14 3 -20 9 -7 5 -16 7
-19 3 -4 -3 -13 0 -21 6 -8 7 -20 10 -25 7 -5 -4 -12 -2 -15 3 -6 9 -51 21
-100 26 -16 2 -31 7 -35 12 -3 5 -13 9 -21 9 -22 1 -73 16 -85 24 -5 4 -28 10
-50 13 -73 11 -105 19 -105 29 0 5 -9 6 -20 3 -12 -4 -20 -2 -20 5 0 6 -8 10
-17 9 -10 -1 -21 0 -25 1 -5 1 -11 3 -15 4 -5 1 -14 5 -20 9 -7 5 -13 6 -13 3
0 -3 -15 1 -32 8 -18 7 -39 11 -46 9 -7 -3 -19 0 -27 7 -8 6 -19 9 -25 5 -5
-3 -10 -2 -10 4 0 6 -7 8 -15 5 -8 -4 -15 -1 -15 6 0 7 -8 10 -20 7 -13 -3
-18 -1 -13 6 4 6 0 8 -9 4 -9 -3 -19 -3 -23 1 -7 7 -12 8 -58 10 -19 1 -26 6
-21 14 4 7 3 8 -4 4 -7 -4 -17 -4 -24 0 -6 4 -28 9 -47 10 -20 1 -37 7 -39 13
-2 5 -9 8 -17 5 -7 -3 -16 -1 -20 5 -3 6 -22 11 -41 11 -19 0 -34 4 -34 10 0
5 -7 7 -15 4 -8 -4 -15 -1 -15 4 0 6 -10 9 -22 7 -12 -3 -33 2 -46 11 -13 9
-29 13 -37 11 -7 -3 -21 1 -32 8 -17 12 -69 23 -120 27 -7 1 -13 5 -13 9 0 5
-6 6 -13 3 -7 -2 -27 2 -43 11 -16 8 -41 15 -56 15 -16 0 -28 5 -28 11 0 5 -5
7 -10 4 -6 -4 -17 -2 -24 4 -8 7 -18 11 -22 10 -25 -4 -65 2 -60 9 3 5 -9 9
-26 10 -17 0 -35 5 -41 11 -5 5 -16 7 -23 4 -8 -3 -24 1 -37 9 -12 8 -30 14
-39 12 -10 -1 -18 2 -18 8 0 6 -9 8 -20 5 -11 -3 -18 -1 -14 4 5 9 -30 13 -68
10 -10 -1 -18 2 -18 8 0 6 -6 8 -14 5 -8 -3 -17 -1 -21 5 -3 6 -20 11 -36 11
-17 0 -38 7 -46 16 -11 11 -18 12 -23 4 -5 -8 -11 -8 -21 2 -8 7 -21 13 -29
13 -8 -1 -20 2 -26 7 -6 4 -23 9 -38 10 -14 1 -26 5 -26 8 0 3 -11 7 -26 8
-14 1 -33 6 -42 11 -9 4 -25 7 -34 6 -10 -2 -18 1 -18 7 0 6 -7 7 -16 4 -9 -3
-25 1 -37 9 -12 8 -31 12 -46 9 -21 -5 -23 -3 -11 6 12 9 11 11 -10 9 -47 -3
-71 1 -65 10 3 6 -6 8 -20 5 -14 -2 -25 0 -25 6 0 6 -5 8 -10 5 -6 -4 -17 -1
-25 5 -8 6 -20 8 -26 4 -8 -5 -9 -3 -4 6 6 10 4 12 -8 7 -10 -3 -17 -3 -17 1
0 5 -16 8 -35 9 -20 1 -42 7 -50 13 -8 7 -15 9 -15 5 0 -4 -6 -2 -13 4 -12 10
-64 21 -109 24 -10 1 -18 4 -18 8 0 6 -28 13 -105 24 -16 2 -73 11 -125 19
-120 20 -351 20 -443 0z m-12 -114 c-3 -5 3 -10 14 -10 12 0 21 -3 21 -8 0 -4
-30 -39 -68 -77 -142 -148 -216 -362 -244 -702 -8 -91 -16 -143 -23 -143 -14
0 -18 -222 -5 -230 6 -4 10 -2529 10 -6866 0 -6110 -1 -6859 -15 -6862 -12 -3
-15 -24 -15 -119 0 -106 2 -115 20 -120 21 -6 21 -5 40 -192 18 -180 80 -438
127 -524 8 -15 16 -39 19 -53 5 -26 50 -103 69 -116 5 -4 6 -8 2 -8 -8 0 7
-21 35 -48 10 -9 18 -22 18 -29 0 -7 9 -21 20 -30 28 -25 9 -45 -31 -31 -16 5
-29 14 -29 20 0 5 -4 7 -9 4 -5 -3 -20 3 -34 14 -14 11 -30 20 -35 20 -6 0
-12 3 -14 8 -1 4 -23 21 -48 37 -45 30 -121 103 -153 147 -46 61 -95 143 -91
150 3 5 1 8 -4 8 -10 0 -38 60 -34 73 1 4 -2 7 -7 7 -5 0 -13 15 -16 32 -4 18
-10 38 -13 43 -4 6 -7 16 -8 23 -2 8 -6 21 -10 30 -8 20 -12 32 -16 52 -2 8
-6 20 -9 25 -3 6 -6 26 -8 45 -2 19 -7 42 -11 50 -17 31 -24 140 -21 298 3
148 2 164 -15 176 -17 13 -18 192 -18 4430 0 2429 -3 4416 -7 4416 -4 0 -12
12 -18 28 -7 15 -18 38 -26 52 -12 21 -15 111 -15 563 0 469 2 542 16 575 22
51 21 367 -1 409 -12 23 -15 117 -15 563 0 325 4 549 10 571 6 20 27 54 48 77
22 23 33 42 25 42 -16 0 -14 -39 -16 363 l-2 338 40 11 c22 6 50 22 63 35 22
24 22 27 22 327 0 251 -2 305 -15 322 -13 16 -16 17 -25 4 -7 -11 -5 -16 10
-18 19 -3 20 -12 20 -308 l0 -305 -21 12 c-21 11 -22 10 -16 -20 6 -28 4 -31
-17 -31 -12 0 -31 10 -42 21 -18 20 -19 38 -16 313 3 240 6 295 19 315 14 22
14 24 -4 19 -18 -5 -19 4 -17 266 1 149 4 282 7 296 4 14 8 102 11 195 3 94 7
184 10 200 4 17 7 47 7 68 1 20 6 37 11 37 5 0 8 6 6 13 -7 36 65 263 111 350
74 140 217 277 344 331 20 8 37 13 37 11 0 -2 12 3 28 11 32 16 46 18 37 4z
m2558 -7490 c1271 -187 2313 -342 2315 -345 3 -3 0 -5 -6 -5 -6 0 -487 70
-1069 155 -582 86 -1240 182 -1463 215 -1553 227 -2114 311 -2118 315 -3 3 3
5 13 5 9 0 1057 -153 2328 -340z m-1360 -510 c529 -72 1108 -151 1287 -175
179 -24 777 -105 1330 -180 553 -74 1018 -138 1033 -141 125 -26 -150 9 -1269
160 -709 96 -1743 236 -2299 311 -896 120 -1103 150 -1057 154 7 1 446 -58
975 -129z"/>
<path d="M7276 14939 c5 -9 -1 -10 -22 -5 -27 7 -28 7 -12 -11 13 -14 16 -30
12 -58 -5 -36 -4 -38 9 -23 12 15 15 -1 20 -134 11 -243 8 -883 -3 -914 -10
-24 -12 -25 -23 -10 -11 14 -15 11 -39 -28 l-27 -45 34 3 c19 2 42 9 52 17 15
13 16 12 10 -11 -4 -14 -7 -99 -7 -189 0 -158 -1 -163 -20 -158 -16 4 -18 2
-11 -11 5 -8 6 -34 4 -56 -5 -37 -4 -39 9 -22 13 17 15 4 21 -125 4 -79 7
-306 7 -504 0 -368 -7 -456 -34 -420 -11 16 -15 14 -37 -21 -13 -22 -25 -42
-27 -47 -6 -11 55 -2 71 11 8 7 16 9 19 6 3 -3 12 12 20 33 11 31 13 275 13
1353 0 1241 -1 1317 -18 1348 -10 17 -20 32 -23 32 -3 0 -2 -5 2 -11z"/>
</g>
</svg>
